<?xml version="1.0" encoding="UTF-8" standalone="no"?>
<svg
   xmlns:dc="http://purl.org/dc/elements/1.1/"
   xmlns:cc="http://creativecommons.org/ns#"
   xmlns:rdf="http://www.w3.org/1999/02/22-rdf-syntax-ns#"
   xmlns:svg="http://www.w3.org/2000/svg"
   xmlns="http://www.w3.org/2000/svg"
   xmlns:sodipodi="http://sodipodi.sourceforge.net/DTD/sodipodi-0.dtd"
   xmlns:inkscape="http://www.inkscape.org/namespaces/inkscape"
   width="1920"
   height="1080"
   viewBox="0 0 507.99999 285.75001"
   version="1.1"
   id="svg8"
   inkscape:version="1.0.2-2 (e86c870879, 2021-01-15)"
   sodipodi:docname="drawing.svg">
  <defs
     id="defs2">
    <inkscape:path-effect
       effect="powerstroke"
       id="path-effect898"
       is_visible="true"
       lpeversion="1"
       offset_points="0,9.27462"
       sort_points="true"
       interpolator_type="CubicBezierJohan"
       interpolator_beta="0.2"
       start_linecap_type="zerowidth"
       linejoin_type="extrp_arc"
       miter_limit="4"
       scale_width="1"
       end_linecap_type="zerowidth" />
    <inkscape:path-effect
       effect="powerstroke"
       id="path-effect894"
       is_visible="true"
       lpeversion="1"
       offset_points="0,9.27462"
       sort_points="true"
       interpolator_type="CubicBezierJohan"
       interpolator_beta="0.2"
       start_linecap_type="zerowidth"
       linejoin_type="extrp_arc"
       miter_limit="4"
       scale_width="1"
       end_linecap_type="zerowidth" />
    <inkscape:path-effect
       effect="powerstroke"
       id="path-effect875"
       is_visible="true"
       lpeversion="1"
       offset_points="0,9.2746248"
       sort_points="true"
       interpolator_type="CubicBezierJohan"
       interpolator_beta="0.2"
       start_linecap_type="zerowidth"
       linejoin_type="extrp_arc"
       miter_limit="4"
       scale_width="1"
       end_linecap_type="zerowidth" />
    <inkscape:path-effect
       effect="powerstroke"
       id="path-effect859"
       is_visible="true"
       lpeversion="1"
       offset_points="0,0.1322915"
       sort_points="true"
       interpolator_type="CubicBezierJohan"
       interpolator_beta="0.2"
       start_linecap_type="zerowidth"
       linejoin_type="extrp_arc"
       miter_limit="4"
       scale_width="1"
       end_linecap_type="zerowidth" />
    <inkscape:path-effect
       effect="powerstroke"
       id="path-effect855"
       is_visible="true"
       lpeversion="1"
       offset_points="0,0.1322915"
       sort_points="true"
       interpolator_type="CubicBezierJohan"
       interpolator_beta="0.2"
       start_linecap_type="zerowidth"
       linejoin_type="extrp_arc"
       miter_limit="4"
       scale_width="1"
       end_linecap_type="zerowidth" />
    <inkscape:path-effect
       effect="powerstroke"
       id="path-effect851"
       is_visible="true"
       lpeversion="1"
       offset_points="0,0.1322915"
       sort_points="true"
       interpolator_type="CubicBezierJohan"
       interpolator_beta="0.2"
       start_linecap_type="zerowidth"
       linejoin_type="extrp_arc"
       miter_limit="4"
       scale_width="1"
       end_linecap_type="zerowidth" />
    <inkscape:path-effect
       effect="powerstroke"
       id="path-effect847"
       is_visible="true"
       lpeversion="1"
       offset_points="0,0.1322915"
       sort_points="true"
       interpolator_type="CubicBezierJohan"
       interpolator_beta="0.2"
       start_linecap_type="zerowidth"
       linejoin_type="extrp_arc"
       miter_limit="4"
       scale_width="1"
       end_linecap_type="zerowidth" />
    <filter
       inkscape:collect="always"
       style="color-interpolation-filters:sRGB"
       id="filter1000"
       x="-0.026627918"
       width="1.0532558"
       y="-0.064964222"
       height="1.1299284">
      <feGaussianBlur
         inkscape:collect="always"
         stdDeviation="0.50175063"
         id="feGaussianBlur1002" />
    </filter>
  </defs>
  <sodipodi:namedview
     id="base"
     pagecolor="#ffffff"
     bordercolor="#666666"
     borderopacity="1.0"
     inkscape:pageopacity="0.0"
     inkscape:pageshadow="2"
     inkscape:zoom="0.70710678"
     inkscape:cx="838.43964"
     inkscape:cy="434.6851"
     inkscape:document-units="px"
     inkscape:current-layer="layer1"
     inkscape:document-rotation="0"
     showgrid="false"
     units="px"
     inkscape:pagecheckerboard="true"
     inkscape:window-width="1440"
     inkscape:window-height="847"
     inkscape:window-x="-8"
     inkscape:window-y="-8"
     inkscape:window-maximized="1" />
  <metadata
     id="metadata5">
    <rdf:RDF>
      <cc:Work
         rdf:about="">
        <dc:format>image/svg+xml</dc:format>
        <dc:type
           rdf:resource="http://purl.org/dc/dcmitype/StillImage" />
        <dc:title />
      </cc:Work>
    </rdf:RDF>
  </metadata>
  <g
     inkscape:label="Layer 1"
     inkscape:groupmode="layer"
     id="layer1">
    <text
       xml:space="preserve"
       style="font-size:22.5778px;line-height:1.25;font-family:'MT Extra';-inkscape-font-specification:'MT Extra';fill:#88ff00;stroke-width:0.264583;fill-opacity:1;"
       x="93.597794"
       y="201.3074"
       id="text832"
       inkscape:export-xdpi="102.85877"
       inkscape:export-ydpi="102.85877"><tspan
         sodipodi:role="line"
         id="tspan830"
         x="93.597794"
         y="201.3074"
         style="font-style:normal;font-variant:normal;font-weight:normal;font-stretch:normal;font-family:'STRONGBOX PERSONAL USE';-inkscape-font-specification:'STRONGBOX PERSONAL USE';fill:#88ff00;stroke-width:0.264583;fill-opacity:1;">mammoth</tspan></text>
    <path
       style="fill:#333333;stroke:#333333;stroke-width:0.264583px;stroke-linecap:butt;stroke-linejoin:miter;stroke-opacity:1"
       d="m 87.410502,60.656821 0.280633,82.546199 c 9.364053,-21.89238 6.921315,-18.84844 32.496275,-27.94039 l 14.49269,9.42459 3.26737,9.05041 8.11949,6.4917 -1.9833,6.02398 5.24151,6.69851 -2.43027,6.88312 3.23393,4.45809 -1.30526,4.56582 1.84268,4.40882 24.13131,-0.0159 1.55137,-5.49301 -2.28388,-3.43958 2.36781,-5.99074 -1.96389,-5.4901 1.95752,-5.475 -2.98953,-8.81304 -11.61628,-13.71952 -7.48355,-5.06201 -1.31486,-5.83963 -4.55432,-1.34441 -3.4369,-9.96754 -3.77132,-0.16184 -5.42143,-6.240601 -6.14166,-4.018377 C 126.20575,82.520693 112.48285,59.566776 100.75303,58.787714 89.023204,58.008653 87.410502,60.656821 87.410502,60.656821 Z"
       id="path834"
       sodipodi:nodetypes="ccccccccccccccccccccccccccczc" />
    <path
       sodipodi:type="spiral"
       style="fill:none;fill-rule:evenodd;stroke:#000000;stroke-width:0.264583"
       id="path841"
       sodipodi:cx="196.4431"
       sodipodi:cy="42.763126"
       sodipodi:expansion="1"
       sodipodi:revolution="0.48866799"
       sodipodi:radius="40.422253"
       sodipodi:argument="-0.21708916"
       sodipodi:t0="0.99900001"
       d="m 157.7632,54.363039 c -0.0248,-0.03573 -0.0495,-0.07151 -0.0742,-0.107322" />
    <path
       style="fill:#666666;fill-rule:nonzero;stroke:#666666;stroke-width:0.264583px;stroke-linecap:butt;stroke-linejoin:miter;stroke-opacity:1"
       d="m 104.26806,110.84721 c 0,0 -6.57043,6.54585 -6.57043,6.54585 6.38202,6.40598 14.7039,13.0902 24.9048,18.82201 8.22517,4.62167 17.66048,8.60097 27.61948,10.9343 8.75756,2.05184 18.13747,2.87006 27.08179,1.4244 4.20959,-0.68039 8.36357,-1.87074 12.28424,-3.70371 3.80168,-1.77733 7.364,-4.15046 10.50218,-7.20738 2.28017,-2.40092 4.28574,-5.18578 5.76815,-8.38956 1.43348,-3.09804 2.33117,-6.48806 2.5714,-10.16002 0.23399,-3.57674 -0.16149,-7.32166 -1.19452,-11.24288 -1.0194,-3.8695 -2.66127,-7.918502 -4.94134,-12.175374 -4.65704,-8.70694 -11.05497,-15.521955 -18.24078,-19.735451 -3.69206,-2.164891 -7.54724,-3.618014 -11.44134,-4.325845 -4.04559,-0.735367 -8.06401,-0.654851 -11.95369,0.193938 -2.10141,0.454018 -3.85831,1.220504 -5.30212,2.197936 -1.49125,1.009549 -2.62971,2.23093 -3.47771,3.540305 -0.8807,1.359878 -1.45238,2.820125 -1.79393,4.269212 -0.35871,1.521859 -0.47036,3.058106 -0.40953,4.519013 0.13463,3.233369 1.09313,6.139327 2.33461,8.338443 0.71254,1.26217 1.51905,2.294286 2.35445,3.098946 0.96168,0.926288 1.9499,1.541968 2.90996,1.91695 -0.96322,-0.376216 -1.92787,-1.029676 -2.82236,-2.002569 -0.77616,-0.844193 -1.48757,-1.917444 -2.07089,-3.202173 -1.01277,-2.230578 -1.63567,-5.119242 -1.40798,-8.130481 0.10269,-1.35801 0.37941,-2.722523 0.86683,-4.009703 0.46439,-1.226377 1.11594,-2.371304 1.97659,-3.362977 0.82502,-0.950624 1.84366,-1.762444 3.08377,-2.375788 1.1982,-0.592613 2.63187,-1.014241 4.34712,-1.182541 3.47291,-0.350994 6.89627,0.01781 10.1914,1.053483 3.17371,0.997509 6.22716,2.613659 9.07452,4.792766 5.54773,4.245716 10.25992,10.594027 13.39648,18.371036 1.5824,3.914514 2.46259,7.343244 2.81388,10.317934 0.35441,3.001 0.16543,5.49048 -0.34111,7.55072 -0.5149,2.09427 -1.37294,3.80966 -2.41415,5.25234 -1.08389,1.50181 -2.44,2.80848 -3.9935,3.96014 -1.9645,1.6703 -4.18665,2.95592 -6.61465,3.9074 -2.51855,0.98697 -5.29273,1.62722 -8.26617,1.93974 -6.38459,0.67106 -13.49418,-0.18614 -20.63787,-2.16198 -8.07208,-2.23264 -15.86852,-5.79446 -22.7888,-9.91519 -8.55665,-5.09513 -15.49554,-10.85625 -20.82835,-16.20909 0,0 -6.57043,6.54585 -6.57043,6.54585 z"
       id="path873"
       inkscape:path-effect="#path-effect875"
       inkscape:original-d="m 104.26806,110.84721 c 27.29399,27.39649 70.63989,39.99284 90.76416,21.35437 7.86361,-7.28302 10.77624,-18.22492 3.06929,-34.524484 -7.70695,-16.299567 -22.09302,-26.494975 -37.1491,-24.042322 -15.05608,2.452653 -12.06117,22.799473 -3.67868,26.073519"
       sodipodi:nodetypes="cszzc" />
    <g
       aria-label="404"
       id="text881"
       style="font-size:22.5778px;line-height:1.25;font-family:'MT Extra';-inkscape-font-specification:'MT Extra';fill:#666666;fill-opacity:1;stroke-width:0.264583;filter:url(#filter1000)"
       inkscape:export-xdpi="266.62924"
       inkscape:export-ydpi="266.62924">
      <path
         d="m 250.74834,156.20642 h -7.81192 v -3.47698 l 7.17974,-10.56641 h 4.49298 v 10.63414 h 2.39325 v 1.08374 h -3.47698 v -10.63415 h -2.82223 l -6.68303,9.82135 v 2.05458 h 7.81192 v 4.65102 h -1.08373 z m -5.01228,-3.68018 4.65103,-6.86365 h 1.44498 v 8.21832 h -6.09601 z m 1.08374,0.27093 h 3.92854 v -5.80249 z m 6.70561,2.32552 h 3.47698 v 1.08373 h -2.39325 v 3.56729 h -1.08373 z"
         style="font-style:normal;font-variant:normal;font-weight:normal;font-stretch:normal;font-family:'Train One';-inkscape-font-specification:'Train One';fill:#666666;fill-opacity:1;stroke-width:0.264583"
         id="path883" />
      <path
         d="m 265.51419,160.22527 q -3.58987,0 -5.21547,-2.39325 -1.62561,-2.39325 -1.62561,-6.88623 0,-2.66418 0.69992,-4.74134 0.72248,-2.09973 2.2352,-3.29636 1.51271,-1.2192 3.90596,-1.2192 2.39324,0 3.90596,1.19663 1.51271,1.17404 2.2352,3.27378 0.72249,2.07716 0.72249,4.78649 0,2.8448 -0.72249,4.92196 -0.72249,2.07716 -2.2352,3.22863 -1.51272,1.12889 -3.90596,1.12889 z m 0,-1.06116 q 2.07715,0 3.34151,-1.016 1.26436,-1.03858 1.85138,-2.88996 0.58702,-1.85138 0.58702,-4.31236 0,-2.34809 -0.58702,-4.19947 -0.58702,-1.85138 -1.85138,-2.91254 -1.26436,-1.06115 -3.34151,-1.06115 -2.07716,0 -3.34152,1.08373 -1.26435,1.08374 -1.85138,2.93512 -0.56444,1.8288 -0.56444,4.15431 0,2.59645 0.56444,4.44783 0.58703,1.8288 1.85138,2.79965 1.26436,0.97084 3.34152,0.97084 z m 0,-1.28693 q -1.67076,0 -2.75449,-1.69334 -1.06116,-1.71591 -1.06116,-5.23805 0,-3.36409 1.03858,-5.10258 1.06115,-1.76107 2.77707,-1.76107 1.71591,0 2.75449,1.78365 1.06116,1.78364 1.06116,5.08 0,3.52214 -1.08374,5.23805 -1.06116,1.69334 -2.73191,1.69334 z m 0,-1.08374 q 1.35467,0 2.032,-1.49013 0.69991,-1.49014 0.69991,-4.35752 0,-2.68676 -0.67733,-4.22205 -0.65476,-1.55786 -2.05458,-1.55786 -1.37725,0 -2.05458,1.53529 -0.67734,1.51271 -0.67734,4.24462 0,2.86738 0.67734,4.35752 0.67733,1.49013 2.05458,1.49013 z"
         style="font-style:normal;font-variant:normal;font-weight:normal;font-stretch:normal;font-family:'Train One';-inkscape-font-specification:'Train One';fill:#666666;fill-opacity:1;stroke-width:0.264583"
         id="path885" />
      <path
         d="m 281.90564,156.20642 h -7.81192 v -3.47698 l 7.17974,-10.56641 h 4.49298 v 10.63414 h 2.39325 v 1.08374 h -3.47698 v -10.63415 h -2.82223 l -6.68303,9.82135 v 2.05458 h 7.81192 v 4.65102 h -1.08373 z m -5.01227,-3.68018 4.65102,-6.86365 h 1.44498 v 8.21832 h -6.096 z m 1.08373,0.27093 h 3.92854 v -5.80249 z m 6.70561,2.32552 h 3.47698 v 1.08373 h -2.39325 v 3.56729 h -1.08373 z"
         style="font-style:normal;font-variant:normal;font-weight:normal;font-stretch:normal;font-family:'Train One';-inkscape-font-specification:'Train One';fill:#666666;fill-opacity:1;stroke-width:0.264583"
         id="path887" />
    </g>
    <g
       aria-label="404"
       id="g918"
       style="font-size:22.5778px;line-height:1.25;font-family:'MT Extra';-inkscape-font-specification:'MT Extra';fill:#666666;fill-opacity:1;stroke-width:0.264583"
       transform="translate(0,-0.52916667)"
       inkscape:export-xdpi="266.62924"
       inkscape:export-ydpi="266.62924">
      <path
         d="m 250.74834,156.20642 h -7.81192 v -3.47698 l 7.17974,-10.56641 h 4.49298 v 10.63414 h 2.39325 v 1.08374 h -3.47698 v -10.63415 h -2.82223 l -6.68303,9.82135 v 2.05458 h 7.81192 v 4.65102 h -1.08373 z m -5.01228,-3.68018 4.65103,-6.86365 h 1.44498 v 8.21832 h -6.09601 z m 1.08374,0.27093 h 3.92854 v -5.80249 z m 6.70561,2.32552 h 3.47698 v 1.08373 h -2.39325 v 3.56729 h -1.08373 z"
         style="font-style:normal;font-variant:normal;font-weight:normal;font-stretch:normal;font-family:'Train One';-inkscape-font-specification:'Train One';fill:#666666;fill-opacity:1;stroke-width:0.264583"
         id="path912" />
      <path
         d="m 265.51419,160.22527 q -3.58987,0 -5.21547,-2.39325 -1.62561,-2.39325 -1.62561,-6.88623 0,-2.66418 0.69992,-4.74134 0.72248,-2.09973 2.2352,-3.29636 1.51271,-1.2192 3.90596,-1.2192 2.39324,0 3.90596,1.19663 1.51271,1.17404 2.2352,3.27378 0.72249,2.07716 0.72249,4.78649 0,2.8448 -0.72249,4.92196 -0.72249,2.07716 -2.2352,3.22863 -1.51272,1.12889 -3.90596,1.12889 z m 0,-1.06116 q 2.07715,0 3.34151,-1.016 1.26436,-1.03858 1.85138,-2.88996 0.58702,-1.85138 0.58702,-4.31236 0,-2.34809 -0.58702,-4.19947 -0.58702,-1.85138 -1.85138,-2.91254 -1.26436,-1.06115 -3.34151,-1.06115 -2.07716,0 -3.34152,1.08373 -1.26435,1.08374 -1.85138,2.93512 -0.56444,1.8288 -0.56444,4.15431 0,2.59645 0.56444,4.44783 0.58703,1.8288 1.85138,2.79965 1.26436,0.97084 3.34152,0.97084 z m 0,-1.28693 q -1.67076,0 -2.75449,-1.69334 -1.06116,-1.71591 -1.06116,-5.23805 0,-3.36409 1.03858,-5.10258 1.06115,-1.76107 2.77707,-1.76107 1.71591,0 2.75449,1.78365 1.06116,1.78364 1.06116,5.08 0,3.52214 -1.08374,5.23805 -1.06116,1.69334 -2.73191,1.69334 z m 0,-1.08374 q 1.35467,0 2.032,-1.49013 0.69991,-1.49014 0.69991,-4.35752 0,-2.68676 -0.67733,-4.22205 -0.65476,-1.55786 -2.05458,-1.55786 -1.37725,0 -2.05458,1.53529 -0.67734,1.51271 -0.67734,4.24462 0,2.86738 0.67734,4.35752 0.67733,1.49013 2.05458,1.49013 z"
         style="font-style:normal;font-variant:normal;font-weight:normal;font-stretch:normal;font-family:'Train One';-inkscape-font-specification:'Train One';fill:#666666;fill-opacity:1;stroke-width:0.264583"
         id="path914" />
      <path
         d="m 281.90564,156.20642 h -7.81192 v -3.47698 l 7.17974,-10.56641 h 4.49298 v 10.63414 h 2.39325 v 1.08374 h -3.47698 v -10.63415 h -2.82223 l -6.68303,9.82135 v 2.05458 h 7.81192 v 4.65102 h -1.08373 z m -5.01227,-3.68018 4.65102,-6.86365 h 1.44498 v 8.21832 h -6.096 z m 1.08373,0.27093 h 3.92854 v -5.80249 z m 6.70561,2.32552 h 3.47698 v 1.08373 h -2.39325 v 3.56729 h -1.08373 z"
         style="font-style:normal;font-variant:normal;font-weight:normal;font-stretch:normal;font-family:'Train One';-inkscape-font-specification:'Train One';fill:#666666;fill-opacity:1;stroke-width:0.264583"
         id="path916" />
    </g>
  </g>
</svg>
